# xmcd
#
# Track frame offsets: 
#        150
#        22653
#        41376
#        66522
#        85971
#        104190
#        128918
#        153682
#        166212
#        183174
#        207315
#        221437
#        243376
#
# Disc length: 3511 seconds
#
# Revision: 1
# Processed by: cddbd v1.5.2PL0 Copyright (c) Steve Scherf et al.
# Submitted via: ExactAudioCopyFreeDBPlugin 1.0
#
DISCID=b30db50d
DTITLE=童麗 Tong Li - 童麗 Tong Li 傳奇  LEGEND
DYEAR=2014
DGENRE=pop
TTITLE0=傳奇 Legend
TTITLE1=因為愛情 Because of Love
TTITLE2=細說往事 Explain The Past
TTITLE3=不要笑我癡 Don't Laugh Me Crazy
TTITLE4=傾國傾城  Beauty Which Overthrows Slates and Cities
TTITLE5=水琉璃 Water Azure Stne
TTITLE6=秋窗風雨夕 Storm at The Night of Autumn
TTITLE7=初戀的地方 The Place Where I Met My First Love
TTITLE8=秋夜 Autumn's Night
TTITLE9=空白 Blankness
TTITLE10=雨夜花 Rainy Night Flower
TTITLE11=月光小夜曲 Moonlight Serenade
TTITLE12=真的好想你 Really Miss You
EXTD=
EXTT0=
EXTT1=
EXTT2=
EXTT3=
EXTT4=
EXTT5=
EXTT6=
EXTT7=
EXTT8=
EXTT9=
EXTT10=
EXTT11=
EXTT12=
PLAYORDER=
